<svg id="Capa_1" enable-background="new 0 0 511.94 511.94" height="512" viewBox="0 0 511.94 511.94" width="512" xmlns="http://www.w3.org/2000/svg"><g><path d="m82.85 195.71c12.407 0 22.5-10.093 22.5-22.5v-37.77c0-4.135 3.364-7.5 7.5-7.5h113.977c3.341 12.975 15.14 22.59 29.144 22.59s25.803-9.615 29.144-22.59h167.593c3.341 12.975 15.14 22.59 29.144 22.59 16.592 0 30.09-13.498 30.09-30.09v-90.35c0-8.032-3.125-15.589-8.813-21.29-5.692-5.675-13.247-8.8-21.279-8.8-14.003 0-25.803 9.615-29.144 22.59h-144.066c-4.143 0-7.5 3.358-7.5 7.5s3.357 7.5 7.5 7.5h143.12v75.35h-165.7v-82.85c0-8.031-3.125-15.587-8.813-21.29-5.69-5.675-13.245-8.8-21.277-8.8-14.003 0-25.803 9.615-29.144 22.59h-129.326c-53.761 0-97.5 43.739-97.5 97.5v53.12c0 12.407 10.093 22.5 22.5 22.5h.09v37.85c0 28.949 23.551 52.5 52.5 52.5h38.373c3.578 25.49 25.517 45.17 51.978 45.17h181.06c26.46 0 48.399-19.68 51.978-45.17h23.202c4.136 0 7.5 3.364 7.5 7.5v22.67h-.09c-12.406 0-22.5 10.093-22.5 22.5v37.77c0 4.135-3.364 7.5-7.5 7.5h-113.977c-3.341-12.975-15.14-22.59-29.144-22.59s-25.803 9.615-29.144 22.59h-167.592c-3.341-12.975-15.14-22.59-29.144-22.59-16.591 0-30.09 13.498-30.09 30.09v90.35c0 8.032 3.125 15.588 8.813 21.29 5.688 5.675 13.245 8.801 21.277 8.801 14.003 0 25.803-9.615 29.144-22.59h167.587c1.319 5.166 4 9.908 7.873 13.79 5.688 5.675 13.245 8.801 21.277 8.801 14.003 0 25.803-9.615 29.144-22.59h129.325c53.762 0 97.5-43.738 97.5-97.5v-53.12c0-12.407-10.094-22.5-22.5-22.5h-45.26v-22.67c0-12.407-10.094-22.5-22.5-22.5h-22.68v-30.18h37.85c20.678 0 37.5 16.822 37.5 37.5v15.31c0 4.142 3.357 7.5 7.5 7.5s7.5-3.358 7.5-7.5v-15.31c0-28.949-23.552-52.5-52.5-52.5h-38.372c-3.578-25.49-25.518-45.17-51.978-45.17h-181.06c-26.46 0-48.399 19.68-51.978 45.17h-23.202c-4.136 0-7.5-3.364-7.5-7.5v-22.67h.09zm-22.67 203.29h165.7v75.35h-165.7zm-30.089 97.94c-4.032 0-7.826-1.57-10.67-4.407-2.85-2.857-4.42-6.651-4.42-10.683v-90.35c0-8.321 6.77-15.09 15.09-15.09s15.09 6.769 15.09 15.09v90.35c-.001 8.321-6.77 15.09-15.09 15.09zm225.879 0c-4.032 0-7.826-1.57-10.67-4.407-2.85-2.857-4.419-6.651-4.419-10.683v-90.35c0-8.321 6.769-15.09 15.09-15.09 8.32 0 15.09 6.769 15.09 15.09v90.35c-.001 8.321-6.77 15.09-15.091 15.09zm240.97-158.21v53.12c0 45.491-37.01 82.5-82.5 82.5h-128.38v-75.35h113.03c12.406 0 22.5-10.093 22.5-22.5v-37.77c0-4.136 3.364-7.5 7.5-7.5h60.35c4.136 0 7.5 3.364 7.5 7.5zm-15.09-323.73c4.031 0 7.826 1.57 10.671 4.407 2.85 2.856 4.419 6.65 4.419 10.683v90.35c0 8.321-6.77 15.09-15.09 15.09s-15.09-6.769-15.09-15.09v-90.35c0-8.32 6.77-15.09 15.09-15.09zm-225.88 0c4.031 0 7.826 1.57 10.67 4.407 2.851 2.857 4.42 6.652 4.42 10.684v90.35c0 8.321-6.77 15.09-15.09 15.09-8.321 0-15.09-6.769-15.09-15.09v-90.351c.001-8.32 6.77-15.09 15.09-15.09zm-240.97 158.21v-53.12c0-45.491 37.009-82.5 82.5-82.5h128.38v75.35h-113.03c-12.407 0-22.5 10.093-22.5 22.5v37.77c0 4.136-3.364 7.5-7.5 7.5h-60.35c-4.135 0-7.5-3.364-7.5-7.5zm112.941 60c0-20.678 16.822-37.5 37.5-37.5h181.06c20.678 0 37.5 16.822 37.5 37.5v45.52c0 20.678-16.822 37.5-37.5 37.5h-181.06c-20.678 0-37.5-16.822-37.5-37.5zm-37.681 7.67h22.68v30.18h-37.85c-20.678 0-37.5-16.822-37.5-37.5v-37.85h30.17v22.67c0 12.407 10.094 22.5 22.5 22.5z"/><path d="m190.729 240.838h.02c6.258-.006 12.206-2.722 16.318-7.45 2.718-3.125 2.388-7.863-.737-10.581-3.125-2.717-7.862-2.389-10.581.737-1.266 1.456-3.094 2.292-5.015 2.294-.002 0-.004 0-.006 0-1.918 0-3.745-.833-5.014-2.285-2.725-3.121-7.462-3.439-10.582-.716-3.12 2.724-3.44 7.462-.716 10.582 4.118 4.716 10.062 7.419 16.313 7.419z"/><path d="m321.138 240.715h.02c6.257-.006 12.205-2.721 16.317-7.449 2.719-3.125 2.39-7.862-.736-10.581-3.122-2.718-7.861-2.389-10.58.736-1.267 1.456-3.095 2.292-5.015 2.294-.002 0-.004 0-.006 0-1.919 0-3.747-.833-5.015-2.285-2.726-3.121-7.463-3.44-10.583-.716-3.119 2.724-3.44 7.462-.716 10.582 4.119 4.716 10.063 7.419 16.314 7.419z"/><path d="m255.965 271h.017c11.696-.011 21.202-10.439 21.19-23.245 0 0 0 0 0-.001-.013-12.8-9.527-23.205-21.215-23.205-.006 0-.013 0-.019 0-5.777.005-11.369 2.626-15.342 7.191-3.777 4.339-5.854 10.041-5.848 16.054.005 6.013 2.093 11.71 5.878 16.043 3.977 4.553 9.567 7.163 15.339 7.163zm-4.054-29.412c.662-.761 2.067-2.037 4.041-2.039h.004c3.365 0 6.21 3.763 6.215 8.22.004 4.458-2.838 8.227-6.204 8.23-.001 0-.002 0-.004 0-1.972 0-3.378-1.272-4.041-2.031-1.38-1.58-2.173-3.835-2.175-6.188s.787-4.61 2.164-6.192z"/></g></svg>